<?xml version="1.0" standalone="no"?>
<!DOCTYPE svg PUBLIC "-//W3C//DTD SVG 20010904//EN"
 "http://www.w3.org/TR/2001/REC-SVG-20010904/DTD/svg10.dtd">
<svg version="1.0" xmlns="http://www.w3.org/2000/svg"
 width="1050.000000pt" height="750.000000pt" viewBox="0 0 1050.000000 750.000000"
 preserveAspectRatio="xMidYMid meet">

<g transform="translate(0.000000,750.000000) scale(0.100000,-0.100000)"
fill="#000000" stroke="none">
<path d="M2373 4978 c-9 -15 -17 -2526 -8 -2576 l6 -32 3174 0 3175 0 0 1310
0 1310 -3169 0 c-2525 0 -3171 -3 -3178 -12z m1590 -327 c34 -13 64 -67 73
-128 6 -48 4 -57 -26 -103 -41 -65 -33 -76 55 -73 53 1 87 -6 197 -45 l133
-46 183 -3 184 -4 35 27 c32 24 113 46 113 30 0 -4 -5 -17 -11 -28 -11 -21
-10 -21 55 -15 76 7 96 2 96 -24 0 -32 -65 -56 -180 -67 -58 -6 -148 -19 -200
-30 -52 -11 -155 -22 -228 -26 -74 -3 -142 -11 -152 -16 -10 -6 -36 -10 -57
-10 -31 0 -43 -6 -59 -27 -36 -49 -64 -179 -64 -293 0 -100 5 -140 37 -324 16
-90 12 -178 -9 -203 -8 -10 -70 -13 -259 -13 -246 0 -248 0 -260 22 -15 28 -6
197 23 415 l21 162 -22 103 c-12 56 -23 103 -24 103 -1 1 -56 10 -122 19 -66
9 -154 23 -195 31 -41 8 -138 15 -215 16 -183 1 -220 12 -180 53 12 11 35 16
81 16 50 0 64 3 64 15 0 8 -6 15 -13 15 -19 0 -36 20 -30 36 7 20 22 18 82
-12 51 -26 58 -27 175 -21 126 6 191 22 317 81 31 14 89 30 129 35 41 5 77 15
81 23 16 25 21 80 10 104 -28 62 2 186 49 203 33 12 83 13 113 2z m2255 -876
c1 -258 0 -480 -3 -493 -5 -22 -7 -23 -143 -20 l-137 3 -3 482 -2 482 32 6
c37 6 153 12 213 11 l40 -1 3 -470z m2050 453 c7 -7 12 -26 12 -44 0 -66 5
-64 -186 -64 l-174 0 0 -135 0 -134 148 -3 147 -3 0 -50 0 -50 -147 -3 -148
-3 0 -179 0 -180 204 0 c223 0 216 2 216 -60 0 -64 21 -60 -359 -60 -257 0
-350 3 -359 12 -9 9 -12 129 -12 480 0 434 1 468 18 477 26 16 624 15 640 -1z
m-848 -133 l0 -114 58 -3 57 -3 0 -45 0 -45 -45 -2 c-25 -1 -51 -2 -57 -2 -10
-1 -13 -57 -13 -248 0 -253 6 -297 34 -260 10 13 25 17 53 15 47 -4 55 -29 21
-65 -82 -90 -294 -87 -363 5 -19 25 -20 45 -23 290 -2 195 -6 262 -15 263 -7
0 -25 2 -42 2 -28 2 -30 4 -33 50 -3 50 0 53 66 47 21 -1 22 2 22 59 0 36 5
63 12 67 7 4 46 20 88 34 41 15 93 36 115 48 65 35 65 35 65 -93z m-4104 -101
c87 -29 133 -79 150 -163 6 -28 4 -30 -36 -41 -23 -6 -56 -10 -73 -8 -28 3
-32 7 -38 40 -7 47 -33 86 -65 98 -41 16 -115 12 -136 -7 -43 -39 -7 -93 89
-132 212 -86 298 -172 295 -295 -2 -105 -66 -179 -180 -212 -82 -24 -269 -16
-340 16 -83 36 -147 125 -140 195 3 28 6 30 72 43 56 11 70 11 77 1 4 -7 6
-17 3 -21 -13 -21 19 -89 58 -122 37 -32 48 -36 100 -36 45 0 63 5 78 20 45
45 10 85 -134 154 -200 96 -272 201 -220 324 56 136 265 205 440 146z m1264
-299 l5 -300 32 -3 c25 -3 36 3 56 30 13 18 28 44 32 58 4 14 10 133 14 265
l6 240 128 8 c71 5 134 6 140 4 9 -3 11 -96 7 -368 l-5 -364 -135 0 -135 0 -5
44 -5 43 -30 -27 c-107 -100 -285 -100 -361 1 l-29 37 -3 308 -3 308 33 5 c56
10 110 13 183 12 l70 -1 5 -300z m830 270 c0 -38 10 -44 31 -19 48 58 170 72
248 28 95 -53 142 -152 149 -317 10 -238 -59 -374 -206 -408 -61 -15 -136 -1
-182 31 -15 11 -31 20 -34 20 -3 0 -7 -62 -8 -137 l-3 -138 -125 -1 c-69 -1
-131 1 -137 3 -10 4 -13 109 -13 479 l0 473 33 6 c30 5 89 9 200 13 l47 2 0
-35z m1443 20 c60 -18 105 -49 120 -84 8 -16 14 -119 17 -281 l5 -255 39 0
c34 0 40 -4 49 -28 14 -43 3 -54 -72 -71 -115 -26 -207 -16 -256 30 l-25 23
-50 -31 c-41 -25 -64 -32 -124 -36 -118 -7 -200 31 -237 112 -22 49 -24 131
-5 178 19 45 95 112 149 132 23 9 67 25 98 36 31 11 75 34 98 50 37 27 41 34
41 73 0 71 -30 92 -125 88 -70 -4 -104 -53 -85 -121 18 -61 16 -63 -44 -57
-82 8 -96 19 -96 73 0 132 87 182 320 183 91 1 151 -4 183 -14z m1117 -790
c11 -13 10 -21 -1 -42 -18 -34 -148 -173 -162 -173 -12 0 -67 -56 -67 -69 0
-22 20 -19 39 5 11 14 28 24 37 22 15 -2 12 -9 -15 -41 -26 -29 -40 -37 -67
-37 -30 0 -34 3 -34 28 0 24 47 108 119 212 29 42 107 110 125 110 8 0 19 -7
26 -15z m-2207 -32 c-7 -21 -40 -70 -63 -95 -9 -10 -30 -44 -48 -77 -32 -60
-41 -105 -22 -116 6 -3 10 -10 10 -16 0 -15 -32 -10 -52 8 -17 15 -19 15 -38
-2 -13 -12 -27 -15 -45 -11 -22 6 -25 12 -25 49 0 35 6 49 36 80 29 29 44 37
73 37 37 0 38 1 87 82 36 59 104 106 87 61z m1537 8 c0 -7 -35 -57 -50 -71 -6
-5 -48 -70 -72 -110 -26 -44 -37 -85 -26 -104 5 -9 7 -24 4 -31 -6 -18 -36 -8
-36 11 0 19 -12 18 -49 -3 -39 -23 -65 -9 -69 35 -5 51 62 122 117 122 33 1
39 6 73 58 54 82 71 102 91 102 9 0 17 -4 17 -9z m-624 -66 c-6 -22 -3 -25 19
-25 33 0 33 -28 0 -35 -60 -12 -71 -15 -81 -22 -16 -12 -64 -115 -58 -124 10
-16 31 -9 50 16 19 25 44 34 44 15 0 -18 -55 -68 -82 -74 -58 -13 -74 53 -28
116 23 31 25 45 8 50 -17 6 0 28 21 28 9 0 35 18 56 40 45 46 60 50 51 15z
m1343 11 c9 -11 8 -18 -4 -30 -20 -20 -45 -21 -45 -2 0 12 25 46 34 46 2 0 9
-6 15 -14z m-2195 -82 c22 -8 20 -56 -4 -101 -17 -33 -18 -39 -5 -53 8 -9 15
-22 15 -28 0 -20 -34 -13 -48 8 -12 19 -14 19 -35 5 -31 -22 -56 -19 -69 10
-18 41 18 104 83 144 37 23 40 24 63 15z m1002 -21 c14 -53 -61 -154 -115
-156 -62 -3 -67 53 -10 118 57 64 114 82 125 38z m532 15 c17 -17 15 -43 -8
-85 -38 -72 -15 -94 39 -37 20 22 48 48 61 59 l25 19 -24 6 c-14 3 -26 11 -29
18 -3 9 16 12 67 12 39 0 71 -4 71 -10 0 -5 -27 -27 -59 -50 -75 -51 -81 -60
-38 -60 21 0 37 -6 40 -14 8 -21 -2 -26 -51 -26 -25 0 -62 -5 -83 -12 -36 -10
-41 -9 -59 12 -19 22 -21 22 -40 5 -28 -26 -70 -13 -70 21 0 38 35 95 78 126
41 30 62 34 80 16z m940 -1 c14 -16 5 -54 -21 -89 -29 -39 -16 -44 21 -8 32
30 52 38 52 21 0 -12 -69 -73 -109 -97 -18 -10 -46 -40 -63 -67 -38 -59 -73
-87 -108 -87 -38 0 -55 22 -39 52 17 32 39 50 98 78 50 23 69 43 33 33 -25 -6
-46 21 -38 49 12 45 103 127 142 128 12 0 26 -6 32 -13z m-588 -7 c17 -12 23
-5 -75 -78 l-50 -37 35 -5 c23 -3 36 -11 38 -22 3 -15 -5 -18 -51 -18 -31 0
-62 -3 -71 -6 -11 -4 -16 0 -16 14 0 13 22 40 56 69 50 44 53 48 33 53 -45 11
-32 29 23 33 29 2 55 4 58 5 3 1 12 -3 20 -8z m-1580 -15 c0 -17 -30 -63 -70
-109 -43 -49 -100 -57 -100 -14 0 19 -1 19 -29 -1 -55 -39 -92 -22 -71 33 12
34 75 96 95 96 23 0 18 -13 -20 -50 -32 -31 -46 -61 -27 -60 4 1 30 23 57 50
63 62 118 71 65 10 -36 -42 -40 -91 -3 -52 36 38 50 59 57 85 7 30 46 39 46
12z m180 -7 c0 -5 -16 -28 -35 -51 -28 -33 -35 -49 -35 -84 0 -45 -9 -53 -30
-28 -8 10 -10 30 -5 62 l7 48 -33 -42 c-29 -37 -69 -58 -69 -35 0 15 58 108
80 127 20 18 23 19 34 3 11 -16 14 -15 41 2 29 19 45 18 45 -2z m1650 15 c0
-3 -12 -22 -27 -42 -16 -20 -37 -54 -48 -75 -23 -45 -45 -58 -45 -27 0 41 74
150 103 150 9 1 17 -2 17 -6z m166 -8 c4 -8 -9 -32 -30 -57 -29 -34 -36 -50
-36 -85 0 -45 -9 -53 -30 -28 -8 9 -11 30 -7 54 6 47 -9 47 -37 1 -17 -29 -56
-42 -56 -18 0 17 73 127 88 133 7 2 22 -1 32 -7 16 -10 23 -10 37 5 21 21 32
22 39 2z"/>
<path d="M5446 3858 c-42 -64 -48 -367 -9 -446 22 -46 55 -54 78 -19 47 72 41
448 -9 479 -21 14 -46 8 -60 -14z"/>
<path d="M6648 3629 c-34 -29 -51 -52 -59 -82 -12 -43 -5 -127 12 -159 14 -26
57 -20 81 12 16 22 18 41 16 148 l-3 122 -47 -41z"/>
<path d="M7889 3133 c-20 -21 -48 -55 -64 -75 -38 -53 -10 -50 35 3 19 23 43
51 53 62 14 17 24 47 14 47 -2 0 -19 -17 -38 -37z"/>
<path d="M5553 2972 c-36 -31 -55 -82 -30 -82 19 0 77 71 77 94 0 22 -10 20
-47 -12z"/>
<path d="M7075 2969 c-32 -29 -49 -79 -27 -79 21 0 82 72 82 97 0 21 -17 15
-55 -18z"/>
<path d="M5758 2980 c-26 -20 -55 -76 -45 -86 9 -10 47 7 47 20 0 7 9 21 20
31 20 18 28 55 11 55 -4 0 -20 -9 -33 -20z"/>
<path d="M6743 2970 c-32 -30 -50 -66 -38 -78 9 -9 38 11 50 35 6 12 17 28 24
37 27 32 -3 37 -36 6z"/>
<path d="M7273 2963 c-41 -46 -45 -92 -7 -65 17 12 64 78 64 90 0 22 -25 11
-57 -25z"/>
<path d="M8198 2960 c-41 -44 -47 -60 -22 -60 18 0 83 68 84 88 0 23 -23 12
-62 -28z"/>
<path d="M8098 2779 c-26 -19 -38 -49 -20 -49 5 0 20 13 35 28 43 45 33 57
-15 21z"/>
</g>
</svg>
